<svg width="139" height="33" viewBox="0 0 139 33" fill="none">
<path d="M34.9336 2.03986C35.2836 11.9425 35.2836 21.8786 34.9336 31.7812C30.4206 32.0645 25.9209 32.0845 21.1012 31.7812V20.172H20.2246L14.5416 31.7812C10.0086 32.0845 5.46888 32.0712 0.649201 31.7812C0.299225 21.8786 0.299225 11.9425 0.649201 2.03986C4.77893 1.75655 10.4585 1.72989 14.5416 2.03986V13.7524H15.4182L21.1012 2.03986C25.1776 1.73655 30.7505 1.74988 34.9336 2.03986ZM38.5 2.03986C38.15 5.90294 38.1367 9.65269 38.4867 13.5158L45.7962 13.4158V31.7779C50.0693 32.0712 55.7989 32.0479 59.7286 31.7779V13.4158L66.9915 13.5224C67.3414 9.65936 67.3448 5.90294 66.9915 2.03986C59.0587 1.77322 46.3928 1.74322 38.4967 2.03986M84.4903 21.1119C84.8403 14.7924 84.8403 8.36278 84.4903 2.03986C80.3706 1.79988 74.6643 1.71989 70.5579 2.03986C70.1846 13.4158 70.1579 21.7086 70.5579 31.7812C79.2507 32.0612 94.4663 32.0645 104.079 31.7812C104.429 27.9181 104.442 24.3484 104.089 20.4853L84.4903 21.1119ZM121.864 22.7218V19.6687L132.374 19.6887C132.724 17.6522 132.697 16.1256 132.347 14.0891L121.864 14.2257V11.0993L138.557 11.5292C138.907 8.1228 138.883 5.44631 138.53 2.03986C129.204 1.68989 117.195 1.78988 107.929 2.03986C107.579 11.9425 107.579 21.8786 107.929 31.7812C118.238 32.1045 128.371 32.0912 138.53 31.7812C138.88 28.3748 138.907 25.465 138.557 22.0585L121.864 22.7218ZM95.8095 0C95.8095 0 93.3764 1.77322 90.9399 4.20972C88.5067 6.64623 86.7335 9.0794 86.7335 9.0794C86.7335 9.0794 88.5067 11.5159 90.9399 13.9491C93.373 16.3856 95.8095 18.1588 95.8095 18.1588C95.8095 18.1588 98.2427 16.3856 100.679 13.9491C103.112 11.5126 104.886 9.0794 104.886 9.0794C104.886 9.0794 103.112 6.64289 100.679 4.20972C98.246 1.77322 95.8095 0 95.8095 0Z" fill="#C91100"/>
</svg>